<svg width="32" height="28" viewBox="0 0 32 28" fill="none" xmlns="http://www.w3.org/2000/svg">
<path d="M24.3662 27.2238C24.1186 27.2247 23.8743 27.1721 23.6539 27.0704L15.757 23.3475L7.86013 27.0704C7.6037 27.1918 7.31459 27.246 7.02565 27.2269C6.73672 27.2077 6.45955 27.1159 6.22567 26.9619C5.99178 26.808 5.81056 26.598 5.70259 26.3559C5.59463 26.1138 5.56425 25.8493 5.61493 25.5924L7.16334 17.7423L0.783884 12.1649C0.584847 11.9861 0.443653 11.7618 0.375455 11.5161C0.307257 11.2705 0.314629 11.0127 0.396781 10.7706C0.486526 10.5228 0.651612 10.3026 0.873305 10.135C1.095 9.96738 1.36442 9.8591 1.65099 9.82242L10.4769 8.66512L14.3635 1.51215C14.4902 1.27641 14.6882 1.07759 14.9347 0.938479C15.1811 0.799368 15.4661 0.725586 15.757 0.725586C16.0479 0.725586 16.3329 0.799368 16.5794 0.938479C16.8258 1.07759 17.0238 1.27641 17.1506 1.51215L21.0836 8.65117L29.9095 9.80848C30.1961 9.84516 30.4655 9.95344 30.6872 10.121C30.9089 10.2886 31.074 10.5088 31.1637 10.7566C31.2459 10.9988 31.2533 11.2565 31.1851 11.5022C31.1169 11.7478 30.9757 11.9721 30.7766 12.151L24.3972 17.7283L25.9456 25.5785C26.0009 25.8399 25.9719 26.1101 25.8622 26.3571C25.7524 26.6042 25.5664 26.8179 25.3262 26.9728C25.0458 27.1498 24.7082 27.238 24.3662 27.2238Z" fill="#FCC419"/>
</svg>
